<?xml version="1.0" encoding="UTF-8"?>
<svg xmlns="http://www.w3.org/2000/svg" xmlns:xlink="http://www.w3.org/1999/xlink" viewBox="0 0 48 48" width="48px" height="48px">
<g id="surface695874">
<path style=" stroke:none;fill-rule:nonzero;fill:rgb(100%,100%,100%);fill-opacity:1;" d="M 16.5 5 C 10.160156 5 5 10.160156 5 16.5 L 5 31.5 C 5 37.839844 10.160156 43 16.5 43 L 31.5 43 C 37.839844 43 43 37.839844 43 31.5 L 43 16.5 C 43 10.160156 37.839844 5 31.5 5 Z M 34 12 C 35.105469 12 36 12.894531 36 14 C 36 15.105469 35.105469 16 34 16 C 32.894531 16 32 15.105469 32 14 C 32 12.894531 32.894531 12 34 12 Z M 24 14 C 29.515625 14 34 18.484375 34 24 C 34 29.515625 29.515625 34 24 34 C 18.484375 34 14 29.515625 14 24 C 14 18.484375 18.484375 14 24 14 Z M 24 17 C 20.132812 17 17 20.132812 17 24 C 17 27.867188 20.132812 31 24 31 C 27.867188 31 31 27.867188 31 24 C 31 20.132812 27.867188 17 24 17 Z M 24 17 "/>
</g>
</svg>
