<?xml version="1.0" encoding="UTF-8"?>
<svg xmlns="http://www.w3.org/2000/svg" xmlns:xlink="http://www.w3.org/1999/xlink" viewBox="0 0 48 48" width="48px" height="48px">
<g id="surface700001">
<path style=" stroke:none;fill-rule:nonzero;fill:rgb(100%,100%,100%);fill-opacity:1;" d="M 43.164062 12.371094 C 42.703125 10.652344 41.347656 9.296875 39.628906 8.835938 C 36.507812 8 24 8 24 8 C 24 8 11.492188 8 8.371094 8.835938 C 6.652344 9.296875 5.296875 10.652344 4.835938 12.371094 C 4 15.492188 4 24 4 24 C 4 24 4 32.507812 4.835938 35.628906 C 5.296875 37.347656 6.652344 38.703125 8.371094 39.164062 C 11.492188 40 24 40 24 40 C 24 40 36.507812 40 39.628906 39.164062 C 41.351562 38.703125 42.703125 37.347656 43.164062 35.628906 C 44 32.507812 44 24 44 24 C 44 24 44 15.492188 43.164062 12.371094 Z M 20 29.195312 L 20 18.804688 C 20 18.035156 20.835938 17.554688 21.5 17.9375 L 30.5 23.132812 C 31.164062 23.519531 31.164062 24.480469 30.5 24.867188 L 21.5 30.0625 C 20.835938 30.449219 20 29.964844 20 29.195312 Z M 20 29.195312 "/>
</g>
</svg>
